# xmcd
#
# Track frame offsets:
#  150
#  12073
#  29273
#  48793
#  72528
#  100637
#  119225
#  141008
#  162450
#  190630
#  230018
#  244630
#  279599
#  304325
#  346762
#
# Disc length: 4791 seconds
#
# Revision: 0
# Processed by: cddbd v1.5.2PL0 Copyright (c) Steve Scherf et al.
# Submitted via: Collectorz.com_Music_Collector 6.9
#
DISCID=cf12b50f
DTITLE=Mucchio Selvaggio - Il Mucchio Selvaggio In Concerto (Cittanova 1981)
DYEAR=1981
DGENRE=Blues - Rock
TTITLE0=Divin' Duck
TTITLE1=Hot Cha
TTITLE2=Mean Old Frisco
TTITLE3=Messin' With The Kid
TTITLE4=Nobody Knows You When You're Down And Out
TTITLE5=I Hate Everybody
TTITLE6=Little Wing
TTITLE7=Key To The Highway
TTITLE8=St. James Infirmary
TTITLE9=Steady Rollin' Man
TTITLE10=Sweet Jane
TTITLE11=Stormy Monday Blues
TTITLE12=Statesboro Blues
TTITLE13=Rock Me Baby
TTITLE14=Sultans Of Swing
EXTD=
EXTT0=
EXTT1=
EXTT2=
EXTT3=
EXTT4=
EXTT5=
EXTT6=
EXTT7=
EXTT8=
EXTT9=
EXTT10=
EXTT11=
EXTT12=
EXTT13=
EXTT14=
PLAYORDER=
